<svg width="24" height="24" viewBox="0 0 24 24" fill="none" xmlns="http://www.w3.org/2000/svg">
<path fill-rule="evenodd" clip-rule="evenodd" d="M11.25 14.5V5.5H12.75V14.5H11.25Z" fill="currentColor"/>
<path fill-rule="evenodd" clip-rule="evenodd" d="M8.5 7.75H15.5V9.25H8.5V7.75Z" fill="currentColor"/>
<path fill-rule="evenodd" clip-rule="evenodd" d="M4 5V19C4 20.6569 5.34315 22 7 22H20V20H7C6.44772 20 6 19.5523 6 19V5C6 4.44772 6.44772 4 7 4H20V2H7C5.34315 2 4 3.34315 4 5Z" fill="currentColor"/>
<path fill-rule="evenodd" clip-rule="evenodd" d="M7 18H20V16H7C5.34315 16 4 17.3431 4 19C4 20.6569 5.34315 22 7 22H20V20H7C6.44772 20 6 19.5523 6 19C6 18.4477 6.44772 18 7 18Z" fill="currentColor"/>
<path fill-rule="evenodd" clip-rule="evenodd" d="M18 17V3H20V17H18Z" fill="currentColor"/>
<path fill-rule="evenodd" clip-rule="evenodd" d="M20 19.99C19.7374 19.99 19.4856 19.8857 19.3 19.7C19.1143 19.5144 19.01 19.2626 19.01 19C19.01 18.7374 19.1143 18.4856 19.3 18.3C19.4856 18.1143 19.7374 18.01 20 18.01V16C19.2602 16 18.5485 16.2733 18 16.7639C17.9586 16.8009 17.9182 16.8392 17.8787 16.8787C17.3161 17.4413 17 18.2044 17 19C17 19.7956 17.3161 20.5587 17.8787 21.1213C17.9182 21.1608 17.9586 21.1991 18 21.2361C18.5485 21.7267 19.2602 22 20 22V19.99Z" fill="currentColor"/>
</svg>
